<svg width="160" height="260" viewBox="0 0 160 260" xmlns="http://www.w3.org/2000/svg">
  <defs>
    <linearGradient id="ganiBody" x1="80" y1="8" x2="80" y2="252" gradientUnits="userSpaceOnUse">
      <stop offset="0" stop-color="#ff8c88"/>
      <stop offset="0.58" stop-color="#ef4545"/>
      <stop offset="1" stop-color="#c93030"/>
    </linearGradient>
    <linearGradient id="ganiGlass" x1="80" y1="30" x2="80" y2="96" gradientUnits="userSpaceOnUse">
      <stop offset="0" stop-color="#eef8ff"/>
      <stop offset="1" stop-color="#84c6f2"/>
    </linearGradient>
  </defs>

  <ellipse cx="80" cy="234" rx="46" ry="14" fill="#0f172a" opacity="0.2"/>
  <rect x="20" y="8" width="120" height="244" rx="30" fill="url(#ganiBody)" stroke="#9f1d1d" stroke-width="4"/>
  <rect x="30" y="18" width="100" height="184" rx="22" fill="#ffffff" opacity="0.1"/>

  <rect x="50" y="14" width="60" height="11" rx="5.5" fill="#7b1010"/>
  <rect x="36" y="30" width="88" height="56" rx="15" fill="url(#ganiGlass)"/>
  <rect x="40" y="34" width="80" height="8" rx="4" fill="#ffffff" opacity="0.45"/>

  <rect x="34" y="96" width="14" height="108" rx="7" fill="#b42121" opacity="0.8"/>
  <rect x="112" y="96" width="14" height="108" rx="7" fill="#b42121" opacity="0.8"/>

  <rect x="55" y="98" width="50" height="30" rx="8" fill="#c92a2a" opacity="0.54"/>
  <rect x="55" y="132" width="50" height="30" rx="8" fill="#b71f1f" opacity="0.48"/>
  <rect x="55" y="166" width="50" height="30" rx="8" fill="#8f1b1b" opacity="0.44"/>

  <rect x="36" y="210" width="88" height="22" rx="11" fill="#0f172a" opacity="0.27"/>
  <rect x="63" y="216" width="34" height="6" rx="3" fill="#0a1227" opacity="0.52"/>
  <rect x="43" y="216" width="13" height="8" rx="4" fill="#fff6cf"/>
  <rect x="104" y="216" width="13" height="8" rx="4" fill="#fff6cf"/>

  <path d="M48 202h16v10H48z" fill="#8a1f1f" opacity="0.6"/>
  <path d="M96 202h16v10H96z" fill="#8a1f1f" opacity="0.6"/>
</svg>
