<svg width="160" height="260" viewBox="0 0 160 260" xmlns="http://www.w3.org/2000/svg">
  <defs>
    <linearGradient id="ganiBody" x1="80" y1="8" x2="80" y2="252" gradientUnits="userSpaceOnUse">
      <stop offset="0" stop-color="#ff7e7e"/>
      <stop offset="1" stop-color="#d63737"/>
    </linearGradient>
    <linearGradient id="ganiGlass" x1="80" y1="34" x2="80" y2="96" gradientUnits="userSpaceOnUse">
      <stop offset="0" stop-color="#e6f4ff"/>
      <stop offset="1" stop-color="#7fc2ff"/>
    </linearGradient>
  </defs>
  <ellipse cx="80" cy="238" rx="44" ry="14" fill="#0f172a" opacity="0.18"/>
  <rect x="22" y="10" width="116" height="238" rx="30" fill="url(#ganiBody)" stroke="#b91c1c" stroke-width="4"/>
  <rect x="45" y="16" width="70" height="14" rx="7" fill="#7f1010"/>
  <rect x="37" y="34" width="86" height="62" rx="16" fill="url(#ganiGlass)"/>
  <rect x="33" y="104" width="16" height="98" rx="8" fill="#a91b1b" opacity="0.76"/>
  <rect x="111" y="104" width="16" height="98" rx="8" fill="#a91b1b" opacity="0.76"/>
  <rect x="54" y="104" width="52" height="58" rx="12" fill="#b91c1c" opacity="0.46"/>
  <rect x="52" y="170" width="56" height="36" rx="10" fill="#7f1d1d" opacity="0.34"/>
  <rect x="34" y="214" width="92" height="24" rx="12" fill="#0f172a" opacity="0.24"/>
  <rect x="64" y="222" width="32" height="6" rx="3" fill="#0b1228" opacity="0.45"/>
  <rect x="42" y="220" width="14" height="8" rx="4" fill="#fff5c6"/>
  <rect x="104" y="220" width="14" height="8" rx="4" fill="#fff5c6"/>
  <rect x="58" y="40" width="44" height="6" rx="3" fill="#ffffff" opacity="0.42"/>
</svg>
