<svg width="160" height="260" viewBox="0 0 160 260" xmlns="http://www.w3.org/2000/svg">
  <defs>
    <linearGradient id="rogiBody" x1="80" y1="8" x2="80" y2="252" gradientUnits="userSpaceOnUse">
      <stop offset="0" stop-color="#56de84"/>
      <stop offset="1" stop-color="#23a353"/>
    </linearGradient>
    <linearGradient id="rogiGlass" x1="80" y1="34" x2="80" y2="96" gradientUnits="userSpaceOnUse">
      <stop offset="0" stop-color="#e4f5ff"/>
      <stop offset="1" stop-color="#79c7ff"/>
    </linearGradient>
  </defs>
  <ellipse cx="80" cy="238" rx="44" ry="14" fill="#0f172a" opacity="0.18"/>
  <rect x="22" y="10" width="116" height="238" rx="30" fill="url(#rogiBody)" stroke="#15803d" stroke-width="4"/>
  <rect x="45" y="16" width="70" height="14" rx="7" fill="#0f6a34"/>
  <rect x="37" y="34" width="86" height="62" rx="16" fill="url(#rogiGlass)"/>
  <rect x="33" y="104" width="16" height="98" rx="8" fill="#17884a" opacity="0.76"/>
  <rect x="111" y="104" width="16" height="98" rx="8" fill="#17884a" opacity="0.76"/>
  <rect x="54" y="104" width="52" height="58" rx="12" fill="#15803d" opacity="0.45"/>
  <rect x="52" y="170" width="56" height="36" rx="10" fill="#14532d" opacity="0.32"/>
  <rect x="34" y="214" width="92" height="24" rx="12" fill="#0f172a" opacity="0.24"/>
  <rect x="64" y="222" width="32" height="6" rx="3" fill="#0b1228" opacity="0.45"/>
  <rect x="42" y="220" width="14" height="8" rx="4" fill="#fff5c6"/>
  <rect x="104" y="220" width="14" height="8" rx="4" fill="#fff5c6"/>
  <rect x="58" y="40" width="44" height="6" rx="3" fill="#ffffff" opacity="0.42"/>
</svg>
