<svg width="160" height="260" viewBox="0 0 160 260" xmlns="http://www.w3.org/2000/svg">
  <defs>
    <linearGradient id="obsBusBody" x1="80" y1="8" x2="80" y2="252" gradientUnits="userSpaceOnUse">
      <stop offset="0" stop-color="#4f8df5"/>
      <stop offset="1" stop-color="#2f67cf"/>
    </linearGradient>
    <linearGradient id="obsBusGlass" x1="80" y1="34" x2="80" y2="96" gradientUnits="userSpaceOnUse">
      <stop offset="0" stop-color="#ddf1ff"/>
      <stop offset="1" stop-color="#78c6ff"/>
    </linearGradient>
  </defs>
  <ellipse cx="80" cy="238" rx="43" ry="13" fill="#0f172a" opacity="0.2"/>
  <rect x="23" y="10" width="114" height="238" rx="30" fill="url(#obsBusBody)" stroke="#1e40af" stroke-width="4"/>
  <rect x="45" y="16" width="70" height="14" rx="7" fill="#0f2f7f"/>
  <rect x="38" y="34" width="84" height="62" rx="16" fill="url(#obsBusGlass)"/>
  <rect x="33" y="104" width="14" height="96" rx="7" fill="#1e3a8a" opacity="0.75"/>
  <rect x="113" y="104" width="14" height="96" rx="7" fill="#1e3a8a" opacity="0.75"/>
  <rect x="54" y="106" width="52" height="56" rx="12" fill="#1e40af" opacity="0.4"/>
  <rect x="52" y="170" width="56" height="34" rx="10" fill="#1e293b" opacity="0.32"/>
  <rect x="36" y="214" width="88" height="22" rx="11" fill="#0f172a" opacity="0.24"/>
  <rect x="44" y="220" width="13" height="7" rx="3.5" fill="#fff4bf"/>
  <rect x="103" y="220" width="13" height="7" rx="3.5" fill="#fff4bf"/>
</svg>
