<svg width="100" height="200" viewBox="0 0 100 200" xmlns="http://www.w3.org/2000/svg">
  <defs>
    <linearGradient id="obBikeBody" x1="50" y1="26" x2="50" y2="176" gradientUnits="userSpaceOnUse">
      <stop offset="0" stop-color="#2a3442"/>
      <stop offset="1" stop-color="#111827"/>
    </linearGradient>
    <linearGradient id="obBikeGlass" x1="50" y1="42" x2="50" y2="100" gradientUnits="userSpaceOnUse">
      <stop offset="0" stop-color="#8ee0ff"/>
      <stop offset="1" stop-color="#1ea5df"/>
    </linearGradient>
  </defs>

  <ellipse cx="50" cy="188" rx="24" ry="9" fill="#0f172a" opacity="0.22"/>
  <circle cx="50" cy="42" r="13" fill="#111827"/>
  <circle cx="50" cy="42" r="8" fill="#42526a"/>
  <circle cx="50" cy="168" r="15" fill="#111827"/>
  <circle cx="50" cy="168" r="9" fill="#42526a"/>

  <rect x="42" y="26" width="16" height="148" rx="8" fill="url(#obBikeBody)"/>
  <rect x="39" y="46" width="22" height="54" rx="9" fill="url(#obBikeGlass)"/>
  <rect x="40" y="106" width="20" height="34" rx="8" fill="#1e293b"/>
  <rect x="34" y="58" width="32" height="7" rx="3.5" fill="#f59e0b"/>
  <rect x="30" y="24" width="11" height="6" rx="3" fill="#0f172a"/>
  <rect x="59" y="24" width="11" height="6" rx="3" fill="#0f172a"/>
  <circle cx="42" cy="176" r="4" fill="#fcd34d"/>
  <circle cx="58" cy="176" r="4" fill="#fcd34d"/>
</svg>
